<?xml version="1.0" encoding="iso-8859-1"?>
<!-- Generator: Adobe Illustrator 19.0.0, SVG Export Plug-In . SVG Version: 6.00 Build 0)  -->
<svg version="1.1" id="Capa_1" xmlns="http://www.w3.org/2000/svg" xmlns:xlink="http://www.w3.org/1999/xlink" x="0px" y="0px"
	 viewBox="0 0 512 512" style="enable-background:new 0 0 512 512;" xml:space="preserve">
<path style="fill:#CFD8DC;" d="M117.333,0h277.333C459.468,0,512,52.532,512,117.333v277.333C512,459.468,459.468,512,394.667,512
	H117.333C52.532,512,0,459.468,0,394.667V117.333C0,52.532,52.532,0,117.333,0z"/>
<path style="fill:#607D8B;" d="M378.453,150.656c-3.424-1.872-7.597-1.724-10.88,0.384l-90.24,58.027V160
	c0.01-5.891-4.758-10.674-10.649-10.684c-2.057-0.003-4.07,0.588-5.799,1.703l-149.333,96c-4.96,3.178-6.405,9.776-3.227,14.736
	c0.83,1.296,1.931,2.397,3.227,3.227l149.333,96c4.951,3.193,11.552,1.768,14.745-3.183c1.115-1.728,1.706-3.742,1.703-5.799
	v-49.067l90.219,58.005c4.951,3.193,11.552,1.768,14.745-3.183c1.107-1.716,1.698-3.714,1.703-5.756V160
	C383.995,156.106,381.869,152.525,378.453,150.656z"/>
<g>
</g>
<g>
</g>
<g>
</g>
<g>
</g>
<g>
</g>
<g>
</g>
<g>
</g>
<g>
</g>
<g>
</g>
<g>
</g>
<g>
</g>
<g>
</g>
<g>
</g>
<g>
</g>
<g>
</g>
</svg>
